# xmcd CD database file
#
# Track frame offsets:
#	150
#	14850
#	29637
#	44625
#	56600
#	71150
#	86212
#	103387
#	143637
#	159700
#	183100
#	199425
#	218675
#	236562
#	253787
#	270925
#	287075
#	303475
#	320062
#	336894
#
# Disc length: 4736 seconds
#
# Revision: 1
# Processed by: cddbd v1.5.2PL0 Copyright (c) Steve Scherf et al.
# Submitted via: CDex 1.51
#
DISCID=41127e14
DTITLE=Randy Travis - It Was Just A Matter Of Time (Live)
DYEAR=2000
DGENRE=Country
TTITLE0=Whisper My Name
TTITLE1=Before You Kill Us Both
TTITLE2=Spirit Of A Boy, Wisdom Of A Man
TTITLE3=Better Class Of Losers
TTITLE4=On The Other Hand
TTITLE5=Look Heart, No Hands
TTITLE6=If I Didn't Have You
TTITLE7=Medley: The Storms Of Life, Is It Still Over, I Won't Need You Anymore (Always and Forever), 1982, Honky Tonk Moon, I Told You So
TTITLE8=The Hole
TTITLE9=Horse Called Music
TTITLE10=Shallow Water
TTITLE11=Baptism
TTITLE12=It's Just A Matter Of Time
TTITLE13=Hard Rock Bottom Of Your Heart
TTITLE14=He Walked On Water
TTITLE15=Deeper Than The Holler
TTITLE16=Forever And Ever, Amen
TTITLE17=Diggin' Up Bones
TTITLE18=Runaway Train
TTITLE19=King Of The Road
EXTD=YEAR: 2000
EXTT0=
EXTT1=
EXTT2=
EXTT3=
EXTT4=
EXTT5=
EXTT6=
EXTT7=
EXTT8=
EXTT9=
EXTT10=
EXTT11=
EXTT12=
EXTT13=
EXTT14=
EXTT15=
EXTT16=
EXTT17=
EXTT18=
EXTT19=
PLAYORDER=
